<?xml version="1.0" encoding="utf-8"?>
<!-- Generator: Adobe Illustrator 22.0.0, SVG Export Plug-In . SVG Version: 6.00 Build 0)  -->
<svg version="1.1" id="Capa_1" xmlns="http://www.w3.org/2000/svg" xmlns:xlink="http://www.w3.org/1999/xlink" x="0px" y="0px"
	 viewBox="0 0 241.6 485" style="enable-background:new 0 0 241.6 485;" xml:space="preserve">
<style type="text/css">
	.st0{fill:#EBBC03;}
	.st1{fill:#D51C27;}
	.st2{fill:#FFFFFF;}
	.st3{fill:#43B5E5;}
	.st4{fill:#293634;}
</style>
<polyline class="st0" points="184.4,485 120.1,461.2 57.2,485 57.2,78.1 119.8,101.8 184.4,78.1 184.4,485 "/>
<polyline class="st0" points="23.6,0 18.1,17.2 0,17.2 14.7,27.7 9,44.9 23.7,34.3 38.3,44.9 32.7,27.7 47.3,17.1 29.3,17.1 23.6,0 
	"/>
<polyline class="st0" points="88.1,0 82.6,17.2 64.5,17.2 79.2,27.7 73.5,44.9 88.2,34.3 102.8,44.9 97.2,27.7 111.8,17.1 
	93.8,17.1 88.1,0 "/>
<polyline class="st0" points="152.9,0 147.4,17.2 129.3,17.2 144,27.7 138.3,44.9 153.1,34.3 167.6,44.9 162.1,27.7 176.6,17.1 
	158.6,17.1 152.9,0 "/>
<polyline class="st0" points="217.9,0 212.4,17.2 194.3,17.2 209,27.7 203.3,44.9 218,34.3 232.6,44.9 227.1,27.7 241.6,17.1 
	223.6,17.1 217.9,0 "/>
<path class="st1" d="M142.2,175.2l18.2,0l-26.7-46.7H108l-26.8,46.7l18.3,0c0,0,1.2-4,2.9-8.4h36.9
	C141,171.3,142.2,175.2,142.2,175.2 M120.7,135.5l0.2-0.3l0.1,0.3c0,0,9,13.1,13.5,20.8h-27.3C111.7,148.6,120.7,135.5,120.7,135.5z
	"/>
<path class="st1" d="M141,194.4v36.1h-40.4v-36.1H81.7c0,0,0,30.4,0,33.1c0,5.8,9.9,13.5,17.8,13.5h14c7.7,0,14.7,0,14.7,0h14
	c7.9,0,17.8-7.6,17.8-13.5c0-2.7,0-33.1,0-33.1H141"/>
<polyline class="st1" points="159.1,270.3 159.1,259.8 82.5,259.8 82.5,307 101.4,307 101.4,289.9 159.1,289.9 159.1,279.4 
	101.4,279.4 101.4,270.3 159.1,270.3 "/>
<path class="st0" d="M23,152c0,0,7-2.5,7-10c0-7.5-6.9-13.9-6.9-13.9H23c0,0-6.9,6.5-6.9,13.9c0,7.5,7,10,7,10H23"/>
<path class="st0" d="M25.8,178.1c0,0,6.5,3.7,12.2-1.2c5.7-4.9,6.1-14.3,6.1-14.3l-0.1-0.1c0,0-9.4-1.1-15.1,3.8
	C23.3,171.2,25.9,178.2,25.8,178.1L25.8,178.1"/>
<path class="st0" d="M20.7,177.7c0,0-6.4,3.9-12.2-0.7c-5.9-4.7-6.6-14.1-6.6-14.1l0.1-0.1c0,0,9.4-1.4,15.2,3.3
	C23.1,170.8,20.7,177.8,20.7,177.7L20.7,177.7"/>
<path class="st0" d="M25.7,208.9c0,0,6.5,3.7,12.2-1.2c5.7-4.9,6.1-14.3,6.1-14.3l-0.1-0.1c0,0-9.4-1.1-15.1,3.8
	C23.1,202,25.8,209,25.7,208.9L25.7,208.9"/>
<path class="st0" d="M20.6,208.6c0,0-6.4,3.9-12.2-0.7c-5.9-4.7-6.6-14.1-6.6-14.1l0.1-0.1c0,0,9.4-1.4,15.2,3.3
	C22.9,201.6,20.5,208.7,20.6,208.6L20.6,208.6"/>
<path class="st0" d="M25.7,239.7c0,0,6.5,3.7,12.2-1.2c5.7-4.9,6.1-14.3,6.1-14.3l-0.1-0.1c0,0-9.4-1.1-15.1,3.8
	C23.1,232.8,25.8,239.8,25.7,239.7L25.7,239.7"/>
<path class="st0" d="M20.6,239.4c0,0-6.4,3.9-12.2-0.7c-5.9-4.7-6.6-14.1-6.6-14.1l0.1-0.1c0,0,9.4-1.4,15.2,3.3
	C22.9,232.4,20.5,239.5,20.6,239.4L20.6,239.4"/>
<path class="st0" d="M25.7,270.5c0,0,6.5,3.7,12.2-1.2c5.7-4.9,6.1-14.3,6.1-14.3l-0.1-0.1c0,0-9.4-1.1-15.1,3.8
	C23.1,263.6,25.8,270.6,25.7,270.5L25.7,270.5"/>
<path class="st0" d="M20.6,270.2c0,0-6.4,3.9-12.2-0.7c-5.9-4.7-6.6-14.1-6.6-14.1l0.1-0.1c0,0,9.4-1.4,15.2,3.3
	C22.9,263.2,20.5,270.3,20.6,270.2L20.6,270.2"/>
<path class="st0" d="M25.7,301.4c0,0,6.5,3.7,12.2-1.2c5.7-4.9,6.1-14.3,6.1-14.3l-0.1-0.1c0,0-9.4-1.1-15.1,3.8
	C23.1,294.5,25.8,301.5,25.7,301.4L25.7,301.4"/>
<path class="st0" d="M20.6,301.1c0,0-6.4,3.9-12.2-0.7c-5.9-4.7-6.6-14.1-6.6-14.1l0.1-0.1c0,0,9.4-1.4,15.2,3.3
	C22.9,294.1,20.5,301.2,20.6,301.1L20.6,301.1"/>
<rect x="21.7" y="149.6" class="st0" width="2.6" height="190.2"/>
<path class="st0" d="M218.7,152c0,0,7-2.5,7-10c0-7.5-6.9-13.9-6.9-13.9h-0.1c0,0-6.9,6.5-6.9,13.9c0,7.5,7,10,7,10H218.7"/>
<path class="st0" d="M221.6,178.1c0,0,6.5,3.7,12.2-1.2c5.7-4.9,6.1-14.3,6.1-14.3l-0.1-0.1c0,0-9.4-1.1-15.1,3.8
	C219,171.2,221.6,178.2,221.6,178.1L221.6,178.1"/>
<path class="st0" d="M216.5,177.7c0,0-6.4,3.9-12.2-0.7c-5.9-4.7-6.6-14.1-6.6-14.1l0.1-0.1c0,0,9.4-1.4,15.2,3.3
	C218.8,170.8,216.4,177.8,216.5,177.7L216.5,177.7"/>
<path class="st0" d="M221.4,208.9c0,0,6.5,3.7,12.2-1.2c5.7-4.9,6.1-14.3,6.1-14.3l-0.1-0.1c0,0-9.4-1.1-15.1,3.8
	C218.9,202,221.5,209,221.4,208.9L221.4,208.9"/>
<path class="st0" d="M216.3,208.6c0,0-6.4,3.9-12.2-0.7c-5.9-4.7-6.6-14.1-6.6-14.1l0.1-0.1c0,0,9.4-1.4,15.2,3.3
	C218.6,201.6,216.2,208.7,216.3,208.6L216.3,208.6"/>
<path class="st0" d="M221.4,239.7c0,0,6.5,3.7,12.2-1.2c5.7-4.9,6.1-14.3,6.1-14.3l-0.1-0.1c0,0-9.4-1.1-15.1,3.8
	C218.9,232.8,221.5,239.8,221.4,239.7L221.4,239.7"/>
<path class="st0" d="M216.3,239.4c0,0-6.4,3.9-12.2-0.7c-5.9-4.7-6.6-14.1-6.6-14.1l0.1-0.1c0,0,9.4-1.4,15.2,3.3
	C218.6,232.4,216.2,239.5,216.3,239.4L216.3,239.4"/>
<path class="st0" d="M221.4,270.5c0,0,6.5,3.7,12.2-1.2c5.7-4.9,6.1-14.3,6.1-14.3l-0.1-0.1c0,0-9.4-1.1-15.1,3.8
	C218.9,263.6,221.5,270.6,221.4,270.5L221.4,270.5"/>
<path class="st0" d="M216.3,270.2c0,0-6.4,3.9-12.2-0.7c-5.9-4.7-6.6-14.1-6.6-14.1l0.1-0.1c0,0,9.4-1.4,15.2,3.3
	C218.6,263.2,216.2,270.3,216.3,270.2L216.3,270.2"/>
<path class="st0" d="M221.4,301.4c0,0,6.5,3.7,12.2-1.2c5.7-4.9,6.1-14.3,6.1-14.3l-0.1-0.1c0,0-9.4-1.1-15.1,3.8
	C218.9,294.5,221.5,301.5,221.4,301.4L221.4,301.4"/>
<path class="st0" d="M216.3,301.1c0,0-6.4,3.9-12.2-0.7c-5.9-4.7-6.6-14.1-6.6-14.1l0.1-0.1c0,0,9.4-1.4,15.2,3.3
	C218.6,294.1,216.2,301.2,216.3,301.1L216.3,301.1"/>
<rect x="217.4" y="149.6" class="st0" width="2.6" height="190.2"/>
<rect x="1.8" y="340.9" class="st2" width="238.1" height="86.8"/>
<rect x="1.8" y="350.6" class="st3" width="238.1" height="9.5"/>
<rect x="1.8" y="370" class="st3" width="238.1" height="9.5"/>
<rect x="1.8" y="389.4" class="st3" width="238.1" height="9.5"/>
<rect x="1.8" y="408.7" class="st3" width="238.1" height="9.5"/>
<path class="st2" d="M65.8,384.7h0.5H65.8c0-30.1,24.4-54.4,54.5-54.5c30.1,0.1,54.4,24.4,54.5,54.5c0,30.1-24.4,54.4-54.5,54.5
	C90.2,439.1,65.8,414.8,65.8,384.7"/>
<path class="st4" d="M120.3,441.7L120.3,441.7c-30.6-0.1-55.6-24.3-57-54.5h-0.1l0-2.5l0-2.6h0.1c1.4-30.2,26.4-54.4,57-54.5
	c31.4,0,57,25.6,57,57C177.2,416.1,151.7,441.7,120.3,441.7 M68.3,384.7c0,28.6,23.3,51.9,51.9,51.9c28.6-0.1,51.9-23.3,51.9-51.9
	c0-28.6-23.3-51.9-51.9-51.9C91.7,332.8,68.4,356.1,68.3,384.7z"/>
<path class="st4" d="M120.3,330.2c-30.1,0-54.5,24.4-54.5,54.5c0,30.1,24.4,54.5,54.5,54.5c30.1,0,54.5-24.4,54.5-54.5
	C174.7,354.6,150.3,330.2,120.3,330.2 M131,426.3l-16-12.3l1.9-12.2l20.1-10.1l13.1,6.5l-1.9,19C143.3,421.5,137.4,424.7,131,426.3z
	 M82.1,405.5l1.4-16.3l14.9-3l16.6,15.6l-1.9,12.2l-18.2,5.8C89.7,416,85.3,411.2,82.1,405.5z M120,341.1c7.2,0,14,1.8,20,4.9
	l4.7,12.3l-10.6,8.9l-23.6-3.7l-5.2-10.3l9.7-11.8C116.6,341.2,118.3,341.1,120,341.1z M163.2,387.6l-11.9,9.2l-13.2-6.6l-2.9-21.5
	l10.6-8.8l15.3,10.3c1.5,4.4,2.4,9.2,2.4,14.2C163.3,385.5,163.3,386.6,163.2,387.6z M83.2,387.4l-6.1-9.3c1-6.6,3.4-12.6,7-17.9
	l19.7-5.9l4.7,9.4l-10.6,20.7L83.2,387.4z M82.6,359c-3.6,5.2-6,11.2-7.2,17.6l-7.4,1.4c1.3-10.1,5.4-19.3,11.6-26.8L82.6,359z
	 M165.1,387.6c0.1-1.1,0.1-2.1,0.1-3.2c0-4.8-0.8-9.4-2.1-13.7l6.7-3.7c2,5.5,3.1,11.5,3.1,17.7c0,3.5-0.4,6.9-1,10.2L165.1,387.6z
	 M146.6,339.2l-6.7,4.7c-6-3-12.8-4.6-19.9-4.6c-1.6,0-3.2,0.1-4.8,0.2l-6.4-6.1c3.7-0.8,7.5-1.3,11.5-1.3
	C129.9,332.1,138.9,334.7,146.6,339.2z M73.7,409.2l7.9-1c3,4.9,7,9.2,11.6,12.6l0.3,9.2C85.1,425,78.2,417.8,73.7,409.2z
	 M128.1,436.7l3.7-8.7c6.4-1.7,12.2-4.9,17.2-9l8.8,2.4C150.1,429.4,139.7,435,128.1,436.7z"/>
</svg>
